<?xml version="1.0" standalone="no"?>
<!DOCTYPE svg PUBLIC "-//W3C//DTD SVG 20010904//EN"
 "http://www.w3.org/TR/2001/REC-SVG-20010904/DTD/svg10.dtd">
<svg version="1.0" xmlns="http://www.w3.org/2000/svg"
 width="396.000000pt" height="508.000000pt" viewBox="0 0 396.000000 508.000000"
 preserveAspectRatio="xMidYMid meet">

<g transform="translate(0.000000,508.000000) scale(0.100000,-0.100000)"
fill="#000000" stroke="none">
<path d="M3701 5054 c0 -11 3 -14 6 -6 3 7 2 16 -1 19 -3 4 -6 -2 -5 -13z"/>
<path d="M185 4980 c-3 -5 -1 -10 4 -10 6 0 11 5 11 10 0 6 -2 10 -4 10 -3 0
-8 -4 -11 -10z"/>
<path d="M1513 4876 c-25 -8 -45 -10 -51 -4 -5 5 -17 5 -27 2 -18 -7 -18 -8 0
-14 23 -8 -21 -38 -202 -139 -62 -35 -128 -77 -146 -95 -18 -17 -62 -47 -96
-66 -90 -50 -125 -83 -201 -185 -104 -141 -164 -201 -218 -221 -44 -15 -122
-85 -122 -109 0 -5 -29 -42 -63 -81 -61 -68 -101 -137 -147 -255 -37 -90 -49
-140 -41 -158 5 -9 14 -34 21 -56 7 -22 18 -47 26 -55 9 -11 12 -44 11 -110
-2 -88 0 -98 25 -137 15 -23 31 -44 37 -47 5 -3 7 -33 4 -66 -5 -48 -2 -64 11
-79 9 -10 19 -42 23 -71 6 -48 4 -53 -12 -47 -13 6 -16 3 -11 -9 3 -8 6 -20 6
-25 0 -6 4 -7 10 -4 5 3 10 -3 10 -14 0 -21 39 -95 47 -87 2 2 -1 60 -8 128
-11 113 -7 262 7 330 6 28 42 48 53 30 5 -8 18 -7 44 2 20 7 34 16 30 19 -10
11 11 8 40 -5 15 -7 27 -16 27 -20 0 -5 5 -8 10 -8 6 0 10 6 10 14 0 9 8 12
24 9 21 -4 66 5 109 22 12 5 17 2 17 -8 0 -8 6 -20 14 -26 12 -10 13 -8 9 9
-4 16 1 23 26 33 17 6 31 14 31 17 0 4 92 5 134 1 5 -1 2 -9 -5 -18 -12 -14
-10 -14 14 1 15 10 27 22 27 26 0 4 28 11 63 15 34 4 76 8 94 10 17 2 41 10
52 17 16 10 23 10 33 0 17 -17 29 -15 22 3 -5 12 2 15 31 15 21 0 34 -4 30
-10 -7 -11 29 1 68 22 35 18 107 21 113 3 5 -13 10 -13 36 1 16 9 32 13 36 10
3 -3 11 -1 19 6 7 6 16 8 19 5 3 -3 17 1 31 8 29 15 57 9 49 -10 -3 -8 6 -15
24 -18 15 -3 35 -13 43 -22 9 -8 20 -15 26 -15 17 0 61 -23 61 -32 0 -4 -10
-8 -22 -9 -19 -1 -18 -2 7 -10 17 -6 46 -12 65 -14 19 -3 46 -8 60 -12 14 -3
34 -5 45 -4 28 2 46 -12 48 -36 1 -18 4 -19 22 -9 11 6 23 14 26 19 10 13 57
4 52 -10 -4 -9 4 -8 26 4 17 10 31 21 31 25 0 3 9 4 21 1 16 -5 19 -11 14 -30
-4 -16 -2 -22 5 -18 5 3 10 13 10 21 0 8 7 14 15 14 8 0 15 5 15 11 0 5 4 8 9
5 4 -3 6 -16 4 -30 -5 -26 15 -46 27 -26 5 9 9 9 14 1 4 -6 4 -17 -1 -23 -13
-22 -11 -78 4 -78 7 0 13 -6 13 -14 0 -8 13 -25 29 -38 35 -30 49 -79 26 -98
-8 -7 -15 -18 -15 -25 0 -7 -11 -16 -25 -19 -14 -4 -25 -11 -25 -16 0 -15 23
-12 48 6 33 23 38 11 17 -36 -32 -70 -11 -59 66 38 14 17 42 15 35 -3 -6 -18
-5 -18 28 -5 21 8 26 6 31 -11 4 -10 11 -17 16 -13 6 3 13 -3 16 -15 3 -12 10
-21 15 -21 5 0 6 6 3 13 -4 6 3 1 14 -13 11 -14 21 -29 21 -34 0 -4 7 -6 15
-2 17 6 45 -2 45 -14 0 -5 -8 -10 -17 -13 -15 -3 -13 -6 10 -17 15 -7 27 -20
27 -28 0 -8 8 -22 18 -31 17 -15 38 -90 47 -166 1 -16 6 -52 10 -80 4 -27 7
-63 7 -78 -1 -29 30 -98 52 -116 12 -10 46 -8 66 4 6 4 17 2 23 -4 14 -11 52
17 73 54 7 12 22 20 38 20 19 0 32 8 41 25 13 23 13 21 8 -30 -6 -69 7 -122
31 -126 10 -1 23 -7 29 -13 14 -14 27 -14 27 -1 0 5 -12 13 -26 16 -19 5 -24
12 -21 25 3 12 0 19 -10 19 -21 0 -13 54 10 58 10 2 17 -3 17 -12 0 -22 20
-30 33 -13 9 11 18 13 35 6 30 -12 32 -74 2 -82 -21 -5 -28 -37 -9 -37 19 0
-49 -60 -72 -63 -27 -4 -48 -42 -49 -84 0 -31 2 -33 34 -33 29 0 36 4 45 31 6
18 11 40 11 49 0 13 11 19 40 23 104 14 178 152 131 244 -16 33 -33 47 -85 72
-35 18 -67 39 -70 48 -10 24 14 44 48 42 57 -4 66 0 66 26 0 14 4 25 10 25 5
0 12 11 16 24 6 24 44 44 44 24 0 -6 7 -16 16 -22 13 -10 17 -40 20 -161 3
-83 6 -158 7 -167 2 -22 17 -24 17 -3 0 8 4 15 9 15 5 0 11 12 13 27 2 14 9
29 17 31 9 3 11 0 6 -8 -6 -9 -3 -10 11 -2 11 6 23 9 29 9 10 -2 40 89 55 166
13 68 -5 123 -51 156 -66 48 -94 91 -114 173 -18 75 -18 78 0 152 15 61 16 80
7 101 -15 32 -16 119 -2 110 19 -12 32 51 42 210 10 164 5 357 -12 415 -10 36
-111 174 -148 204 -13 10 -21 25 -18 32 3 8 -1 14 -10 14 -8 0 -30 16 -48 35
-19 19 -42 35 -53 35 -12 0 -28 15 -42 40 -12 22 -27 40 -33 40 -6 0 -65 51
-132 114 -66 62 -125 111 -131 110 -5 -2 -44 13 -85 34 -62 31 -87 51 -147
122 -41 47 -79 99 -85 117 -11 29 -80 81 -101 75 -4 -1 -24 5 -43 13 -20 8
-44 15 -54 15 -10 0 -20 7 -24 15 -4 11 -20 15 -55 15 -27 0 -84 6 -127 14
-44 8 -171 17 -284 20 -209 7 -254 11 -244 27 8 13 -75 10 -123 -5z m39 -1488
c-7 -7 -12 -8 -12 -2 0 14 12 26 19 19 2 -3 -1 -11 -7 -17z m828 -158 c0 -5
-2 -10 -4 -10 -3 0 -8 5 -11 10 -3 6 -1 10 4 10 6 0 11 -4 11 -10z m900 -1044
c0 -3 -4 -8 -10 -11 -5 -3 -10 -1 -10 4 0 6 5 11 10 11 6 0 10 -2 10 -4z"/>
<path d="M1833 4873 c15 -2 37 -2 50 0 12 2 0 4 -28 4 -27 0 -38 -2 -22 -4z"/>
<path d="M2303 4849 c14 -8 22 -8 30 0 8 8 3 11 -18 11 -26 -1 -28 -2 -12 -11z"/>
<path d="M2681 4623 c7 -12 15 -20 18 -17 3 2 -3 12 -13 22 -17 16 -18 16 -5
-5z"/>
<path d="M880 4590 c-13 -8 -12 -10 3 -10 9 0 17 5 17 10 0 12 -1 12 -20 0z"/>
<path d="M2711 4588 c2 -2 24 -21 48 -43 l44 -40 -34 42 c-19 24 -40 43 -48
43 -8 0 -12 -1 -10 -2z"/>
<path d="M726 4474 c-3 -9 -6 -17 -6 -19 0 -1 16 -5 35 -7 l36 -4 -25 23 c-30
27 -32 28 -40 7z"/>
<path d="M3951 4404 c0 -11 3 -14 6 -6 3 7 2 16 -1 19 -3 4 -6 -2 -5 -13z"/>
<path d="M616 4296 c-13 -20 -13 -24 -2 -20 8 3 17 13 20 21 10 26 0 25 -18
-1z"/>
<path d="M563 4196 l-23 -22 28 2 c16 0 28 7 30 16 5 26 -11 27 -35 4z"/>
<path d="M3470 3976 c0 -2 8 -10 18 -17 15 -13 16 -12 3 4 -13 16 -21 21 -21
13z"/>
<path d="M3553 3413 c9 -2 25 -2 35 0 9 3 1 5 -18 5 -19 0 -27 -2 -17 -5z"/>
<path d="M1670 3389 c0 -5 5 -7 10 -4 6 3 10 8 10 11 0 2 -4 4 -10 4 -5 0 -10
-5 -10 -11z"/>
<path d="M322 2970 c0 -14 2 -19 5 -12 2 6 2 18 0 25 -3 6 -5 1 -5 -13z"/>
<path d="M412 2499 c-21 -86 -21 -94 -6 -117 9 -13 24 -27 34 -29 10 -3 18
-12 18 -21 -1 -10 6 -34 15 -54 16 -38 29 -44 81 -39 10 0 25 -4 32 -10 8 -6
14 -8 14 -3 0 5 4 4 8 -1 4 -6 21 -21 38 -33 23 -16 34 -18 42 -10 9 9 12 7
12 -10 0 -12 6 -22 14 -22 8 0 12 -7 10 -17 -6 -23 6 -39 34 -47 14 -5 22 -3
22 5 0 9 3 9 14 0 7 -6 21 -9 30 -5 9 3 16 1 16 -5 0 -6 5 -11 10 -11 6 0 9 6
8 13 -2 6 2 11 8 10 7 -1 24 9 38 22 14 13 26 19 26 12 0 -8 3 -8 9 1 4 8 12
14 17 15 5 1 9 13 9 27 0 20 5 25 25 25 18 0 25 -5 24 -17 -1 -10 2 -15 7 -12
5 3 9 21 9 40 0 33 1 34 17 18 22 -21 27 -6 15 40 -6 20 -8 45 -5 56 3 11 0
20 -6 20 -6 0 -11 -7 -11 -16 0 -8 -5 -12 -11 -8 -6 3 -9 14 -6 24 3 13 0 16
-17 13 -17 -4 -18 -3 -6 6 13 9 13 11 -1 11 -9 0 -19 7 -23 15 -3 8 -13 15
-22 15 -24 0 -84 22 -84 32 0 4 -16 10 -35 14 -19 3 -38 10 -41 15 -3 5 -19 9
-35 9 -17 0 -48 9 -70 19 -22 11 -66 25 -97 32 -31 7 -63 19 -70 28 -11 13
-16 14 -34 2 -19 -12 -20 -11 -15 8 3 12 1 21 -3 21 -5 0 -14 2 -22 5 -9 4
-19 -20 -36 -86z m126 -105 c20 -4 22 -7 11 -20 -8 -10 -21 -13 -38 -9 -17 4
-21 2 -13 -3 11 -8 11 -10 -2 -15 -8 -3 -18 -2 -21 3 -4 6 -15 10 -26 10 -10
0 -19 2 -19 4 0 2 -2 10 -5 18 -4 9 8 14 42 15 27 1 59 0 71 -3z m171 -142
c-5 -2 -21 3 -36 10 -36 17 -42 45 -11 57 20 8 25 5 39 -28 9 -20 12 -37 8
-39z m-38 -35 c-6 -8 -8 -17 -4 -21 4 -4 0 -4 -10 0 -17 6 -17 7 0 20 23 17
28 18 14 1z"/>
<path d="M458 2373 c7 -3 16 -2 19 1 4 3 -2 6 -13 5 -11 0 -14 -3 -6 -6z"/>
<path d="M1985 2580 c3 -5 8 -10 11 -10 2 0 4 5 4 10 0 6 -5 10 -11 10 -5 0
-7 -4 -4 -10z"/>
<path d="M1878 2573 c7 -3 16 -2 19 1 4 3 -2 6 -13 5 -11 0 -14 -3 -6 -6z"/>
<path d="M2025 2570 c4 -6 -6 -10 -23 -10 -16 0 -32 -3 -36 -7 -4 -5 -74 -8
-154 -8 -122 0 -151 -3 -172 -17 -15 -10 -56 -20 -100 -24 -119 -10 -131 -12
-138 -20 -4 -4 1 -4 11 -1 11 4 16 3 12 -3 -3 -6 -15 -10 -26 -10 -10 0 -19
-4 -19 -10 0 -5 -9 -10 -20 -10 -11 0 -20 4 -20 9 0 5 -9 7 -20 4 -11 -3 -20
-12 -20 -20 0 -9 6 -13 13 -10 10 4 13 -2 9 -19 -2 -13 -8 -24 -13 -24 -5 0
-6 -7 -3 -15 4 -9 0 -15 -10 -15 -18 0 -23 -49 -7 -65 5 -6 11 -28 13 -49 l3
-39 55 -2 c71 -2 89 -10 82 -37 -3 -14 -1 -19 6 -14 7 4 12 15 12 26 0 11 11
22 30 29 30 10 60 6 60 -9 0 -4 9 -10 20 -13 21 -5 28 -37 9 -37 -8 0 -9 -4 0
-13 6 -8 8 -17 5 -20 -3 -3 14 -11 37 -17 24 -6 53 -15 64 -20 38 -19 182 -29
220 -16 56 20 52 26 -16 27 -73 1 -111 9 -109 24 0 6 10 10 21 10 11 0 25 9
31 19 8 14 7 17 -1 12 -6 -4 -11 -2 -11 4 0 6 -4 8 -10 5 -5 -3 -10 -2 -10 4
0 5 5 13 10 16 6 3 10 1 10 -6 0 -10 3 -10 12 -1 7 7 36 12 65 12 46 0 55 -3
62 -22 8 -22 8 -21 14 4 7 25 49 43 79 33 20 -6 129 -17 168 -16 19 0 67 -4
107 -9 44 -6 81 -6 95 0 21 8 20 9 -9 9 -39 1 -45 27 -13 56 11 10 20 24 20
30 0 24 -79 45 -195 51 -43 3 -82 8 -85 13 -3 5 -18 8 -35 8 -16 -1 -48 2 -70
6 -22 4 -56 10 -75 14 -35 6 -78 39 -65 51 3 3 10 0 15 -8 7 -12 12 -12 22 -2
10 10 10 15 -2 22 -8 5 -11 10 -6 10 5 0 18 -7 28 -17 17 -15 19 -15 39 3 17
16 22 16 29 4 8 -13 12 -13 32 -1 24 15 74 27 163 38 46 5 49 5 36 -10 -16
-20 -12 -21 23 -7 19 7 29 6 40 -5 17 -17 52 -20 61 -4 4 6 16 14 28 18 19 7
18 9 -14 33 -44 32 -187 67 -199 48 -6 -10 -15 -10 -39 -2 -17 6 -39 8 -48 5
-10 -4 -14 -2 -10 4 4 5 -5 15 -19 22 -31 14 -57 14 -49 1z m332 -126 c-3 -3
-12 -4 -19 -1 -8 3 -5 6 6 6 11 1 17 -2 13 -5z m-492 -34 c3 -5 -1 -10 -10
-10 -9 0 -13 5 -10 10 3 6 8 10 10 10 2 0 7 -4 10 -10z m-48 -150 c15 -34 18
-50 10 -53 -16 -5 -90 12 -102 24 -26 26 7 79 49 79 15 0 27 -13 43 -50z"/>
<path d="M1000 2389 c0 -5 5 -7 10 -4 6 3 10 8 10 11 0 2 -4 4 -10 4 -5 0 -10
-5 -10 -11z"/>
<path d="M3465 2201 c-3 -5 -1 -12 5 -16 5 -3 10 1 10 9 0 18 -6 21 -15 7z"/>
<path d="M1336 2175 c-3 -8 -1 -15 4 -15 6 0 10 7 10 15 0 8 -2 15 -4 15 -2 0
-6 -7 -10 -15z"/>
<path d="M1856 2163 c-11 -28 10 -35 22 -8 9 20 9 25 -2 25 -8 0 -17 -8 -20
-17z"/>
<path d="M1475 2160 c3 -5 8 -10 11 -10 2 0 4 5 4 10 0 6 -5 10 -11 10 -5 0
-7 -4 -4 -10z"/>
<path d="M3396 2082 c-54 -58 -66 -76 -57 -90 9 -15 20 -6 65 55 48 67 42 90
-8 35z"/>
<path d="M3475 2069 c-16 -27 -32 -49 -36 -49 -4 0 -9 -11 -12 -25 -4 -25 -4
-25 16 -8 18 17 72 122 65 128 -2 2 -16 -19 -33 -46z"/>
<path d="M3020 2021 c0 -25 19 -38 31 -20 12 19 6 33 -14 37 -11 2 -17 -3 -17
-17z"/>
<path d="M3000 1840 c-11 -20 -5 -60 8 -60 4 0 8 18 8 40 2 45 -1 48 -16 20z"/>
<path d="M3064 1763 c-10 -29 -24 -53 -31 -53 -7 0 -13 -5 -13 -11 0 -5 5 -7
10 -4 19 12 10 -12 -15 -39 -15 -16 -32 -25 -40 -22 -12 4 -11 -4 5 -34 22
-44 25 -60 9 -60 -5 0 -8 4 -5 9 3 4 -3 16 -14 26 -20 18 -21 18 -40 -3 -11
-12 -20 -24 -20 -27 0 -4 -10 -15 -22 -25 -13 -10 -19 -22 -15 -27 5 -4 14 0
22 10 10 15 14 15 24 3 7 -8 8 -17 3 -20 -10 -6 -4 -56 7 -56 13 0 109 116
130 157 11 23 25 45 31 48 6 4 22 24 36 46 25 40 25 59 0 59 -7 0 -20 17 -28
38 l-15 37 -19 -52z m-95 -235 c0 -13 -3 -17 -6 -10 -2 6 -9 10 -14 6 -5 -3
-9 2 -9 10 0 9 7 16 15 16 9 0 15 -9 14 -22z m-9 -47 c0 -4 -6 -8 -14 -8 -8 0
-12 6 -9 14 5 13 23 9 23 -6z"/>
<path d="M2983 1746 c14 -11 15 -15 4 -19 -17 -7 -29 -58 -16 -71 6 -6 9 -4 9
7 0 9 9 31 20 49 26 43 25 48 -7 48 -26 -1 -27 -2 -10 -14z"/>
<path d="M2825 1740 c-3 -5 1 -10 9 -10 9 0 16 5 16 10 0 6 -4 10 -9 10 -6 0
-13 -4 -16 -10z"/>
<path d="M2925 1680 c-3 -5 -1 -10 4 -10 6 0 11 5 11 10 0 6 -2 10 -4 10 -3 0
-8 -4 -11 -10z"/>
<path d="M713 1647 c-18 -12 -33 -27 -33 -33 0 -7 -7 -15 -16 -18 -8 -3 -13
-10 -9 -15 3 -5 1 -12 -5 -16 -5 -3 -17 -23 -26 -43 -27 -58 -34 -64 -53 -50
-9 7 -4 -1 12 -18 15 -17 27 -35 27 -42 0 -13 38 -25 66 -20 14 2 20 -4 22
-21 6 -40 32 -72 56 -69 12 2 20 9 19 16 -4 19 5 14 17 -9 10 -17 9 -20 -7
-17 -14 2 -18 -3 -18 -24 1 -14 -3 -25 -6 -22 -4 2 -10 0 -14 -6 -4 -6 -12 -7
-18 -3 -7 3 -3 -3 7 -15 21 -24 32 -29 20 -10 -5 8 -2 9 9 5 12 -4 17 -1 17
10 0 11 4 13 13 5 7 -5 21 -6 32 -1 11 4 15 8 9 8 -14 1 -25 51 -11 51 5 0 21
-12 34 -26 18 -19 23 -34 19 -53 -3 -14 -3 -20 0 -13 10 21 26 13 19 -9 -5
-14 -3 -19 3 -15 6 3 13 -3 17 -14 3 -11 11 -20 17 -20 6 0 8 -9 5 -20 -3 -11
-2 -18 3 -15 9 6 20 -29 20 -69 0 -24 -2 -27 -15 -16 -13 11 -14 8 -9 -21 6
-29 46 -114 61 -129 9 -9 -9 65 -18 74 -13 14 -11 25 4 22 21 -3 42 -20 60
-49 10 -15 29 -32 41 -37 13 -5 26 -15 29 -22 3 -10 8 -10 17 -2 8 8 9 14 1
18 -6 4 -11 16 -11 27 0 19 4 20 43 13 23 -4 52 -7 65 -7 12 1 22 -3 22 -8 0
-5 5 -9 11 -9 5 0 7 5 4 11 -5 7 4 9 27 5 111 -17 124 -17 199 9 95 33 91 32
96 17 3 -7 -1 -10 -10 -6 -23 8 -28 -10 -7 -24 16 -10 20 -8 26 11 9 29 25 39
41 25 10 -8 10 -14 2 -24 -9 -11 -7 -15 6 -21 12 -4 24 1 37 17 10 12 21 20
25 16 3 -3 15 1 25 11 10 9 18 13 18 9 0 -4 7 -1 15 8 8 8 15 19 15 25 0 6 6
11 14 11 8 0 23 11 34 25 11 14 23 25 26 25 10 0 68 42 97 70 25 25 62 32 87
17 8 -6 12 -1 12 17 0 25 3 27 50 30 8 1 16 8 18 17 3 14 30 20 100 21 15 0
28 10 37 29 10 18 20 26 30 23 8 -4 15 -1 15 5 0 19 29 12 40 -9 8 -15 8 -20
-1 -20 -8 0 -9 -4 0 -13 6 -8 7 -17 3 -21 -4 -4 -7 -11 -8 -14 -3 -23 -48 -99
-67 -113 -5 -3 -9 -10 -9 -15 -1 -17 -59 -132 -73 -144 -7 -6 -17 -26 -21 -43
-3 -18 -15 -49 -25 -70 -10 -21 -15 -45 -12 -53 5 -12 -7 -19 -29 -15 -5 0 -8
-4 -8 -10 0 -5 -5 -7 -10 -4 -6 4 -7 11 -4 17 4 7 2 8 -4 4 -7 -4 -8 -15 -3
-28 10 -28 -3 -98 -20 -109 -8 -5 -21 -9 -29 -9 -13 0 -13 -2 -1 -9 11 -7 9
-14 -13 -35 -14 -15 -26 -29 -26 -31 0 -9 -35 -45 -43 -45 -4 0 -6 4 -3 8 2 4
-4 14 -16 21 -11 7 -17 8 -13 2 3 -6 1 -11 -4 -11 -6 0 -11 -6 -11 -13 0 -14
-40 -37 -62 -37 -6 0 -20 -8 -30 -17 -14 -13 -21 -14 -30 -5 -17 17 -39 15
-53 -4 -6 -9 -24 -17 -38 -17 -15 0 -27 -3 -27 -7 0 -4 -11 -5 -25 -2 -16 3
-33 -2 -45 -13 -10 -9 -23 -14 -29 -11 -5 4 -12 2 -16 -4 -3 -5 -15 -10 -26
-10 -10 0 -29 -10 -40 -21 -16 -16 -23 -18 -29 -9 -6 9 -9 9 -13 -1 -4 -10 -6
-9 -6 4 -1 10 -9 17 -21 17 -11 0 -20 6 -21 13 0 6 -4 3 -8 -8 -5 -11 -13 -21
-20 -21 -6 -1 -15 -2 -21 -3 -25 -3 -6 -19 28 -25 21 -3 47 -14 58 -24 19 -18
22 -18 134 10 63 15 140 31 170 35 30 3 69 15 85 25 17 10 37 18 46 18 18 0
65 34 153 111 29 25 86 64 127 87 42 23 84 51 94 62 10 11 22 20 26 20 13 0
83 79 153 172 35 46 92 115 127 153 130 142 189 222 189 254 0 17 5 31 10 31
6 0 10 -9 10 -21 0 -11 4 -18 9 -15 11 7 -3 74 -18 89 -8 8 -11 8 -11 -1 0 -7
-6 -12 -12 -12 -7 0 -22 -20 -33 -45 -12 -28 -25 -43 -33 -40 -9 3 -10 0 -2
-15 13 -25 -14 -60 -47 -60 -17 0 -27 -10 -37 -35 -8 -19 -22 -35 -30 -35 -9
0 -16 -4 -16 -10 0 -14 -23 -12 -56 5 -16 8 -22 15 -14 15 14 0 130 111 130
125 0 3 -9 3 -20 0 -24 -8 -26 5 -4 47 11 22 13 33 5 41 -8 8 -11 7 -11 -2 0
-7 -8 -11 -17 -10 -45 4 -63 -2 -63 -20 0 -11 -9 -21 -21 -24 -16 -4 -19 -11
-14 -26 4 -12 2 -21 -4 -21 -6 0 -11 5 -11 10 0 6 -5 10 -11 10 -6 0 -8 -8 -5
-18 4 -12 1 -19 -8 -19 -11 0 -12 6 -4 29 6 16 8 31 5 34 -7 7 21 75 40 96 17
19 10 38 -14 38 -8 0 -13 6 -10 13 3 8 -7 13 -30 15 -21 1 -32 -2 -28 -8 9
-14 -17 -12 -38 4 -12 9 -35 12 -80 8 -122 -11 -159 -8 -219 21 -32 15 -58 31
-58 35 0 4 -17 12 -37 19 -41 12 -57 3 -48 -27 5 -15 -10 -26 -67 -50 -30 -13
-33 -21 -18 -51 8 -13 7 -19 0 -19 -6 0 -8 -5 -4 -12 4 -7 3 -8 -5 -4 -6 4 -9
16 -6 27 4 11 2 19 -5 19 -7 0 -9 8 -5 21 5 15 4 19 -4 14 -7 -4 -19 -1 -28 7
-12 9 -17 10 -20 2 -2 -7 -13 -10 -23 -7 -19 5 -19 6 3 23 12 10 19 22 15 26
-4 4 -14 2 -21 -4 -8 -7 -17 -9 -20 -5 -4 3 -13 1 -21 -6 -11 -9 -15 -7 -19 9
-4 17 0 20 24 20 16 0 29 5 29 11 0 5 -4 8 -9 4 -14 -8 -25 15 -26 50 0 34
-17 41 -58 26 -19 -8 -27 -18 -27 -35 0 -19 -12 -31 -55 -55 -30 -17 -63 -31
-74 -31 -11 0 -22 -4 -26 -10 -3 -5 -12 -7 -19 -4 -7 3 -21 -2 -30 -11 -9 -10
-25 -15 -36 -12 -10 3 -21 0 -23 -7 -3 -7 -11 -3 -21 9 -14 17 -15 17 -10 2 6
-15 3 -17 -19 -12 -18 5 -28 2 -36 -12 -6 -10 -11 -12 -11 -5 0 8 -8 5 -22 -8
-12 -11 -28 -18 -34 -16 -13 5 -46 -29 -57 -57 -3 -9 -13 -17 -21 -17 -8 0
-21 -3 -29 -6 -9 -3 -24 3 -35 14 -21 21 -55 42 -68 42 -4 0 7 -13 24 -29 36
-35 103 -71 132 -71 12 0 20 -7 20 -17 0 -12 3 -14 8 -6 6 9 20 9 60 -3 29 -9
50 -20 47 -25 -4 -5 1 -9 9 -9 9 0 16 -4 16 -10 0 -5 7 -10 15 -10 8 0 15 -4
15 -9 0 -11 -59 -6 -105 9 -16 5 -58 14 -92 21 -35 6 -63 16 -63 20 0 5 -7 9
-16 9 -33 0 -136 89 -130 113 1 7 1 9 -1 5 -8 -14 -23 -8 -23 8 0 8 -13 29
-29 45 -16 16 -32 34 -34 41 -4 10 -6 10 -6 1 -1 -15 -21 -18 -21 -4 0 5 14
24 32 41 33 33 33 34 -13 60 -18 10 -19 67 -2 79 12 7 23 60 16 78 -7 19 -33
15 -70 -10z m894 -229 c-3 -8 -6 -5 -6 6 -1 11 2 17 5 13 3 -3 4 -12 1 -19z
m103 -42 c0 -3 -4 -8 -10 -11 -5 -3 -10 -1 -10 4 0 6 5 11 10 11 6 0 10 -2 10
-4z m600 -6 c0 -5 -2 -10 -4 -10 -3 0 -8 5 -11 10 -3 6 -1 10 4 10 6 0 11 -4
11 -10z m-680 -14 c0 -3 -4 -8 -10 -11 -5 -3 -10 -1 -10 4 0 6 5 11 10 11 6 0
10 -2 10 -4z m-86 -32 c5 -14 8 -14 27 0 26 18 50 11 41 -12 -5 -15 -4 -15 11
-3 16 12 18 12 16 -6 -1 -7 31 -27 46 -28 6 -1 15 2 20 6 6 4 24 10 40 13 16
3 37 15 45 26 12 16 22 20 42 15 16 -4 25 -12 22 -20 -3 -7 -1 -16 5 -20 6 -3
11 -20 11 -36 0 -20 -4 -28 -11 -23 -7 4 -9 0 -5 -14 6 -18 1 -22 -31 -31 -21
-5 -59 -13 -85 -16 -27 -4 -48 -12 -48 -17 0 -6 -7 -8 -15 -4 -8 3 -15 2 -15
-2 0 -16 -124 -33 -246 -33 -70 0 -129 3 -132 6 -5 5 31 40 51 49 8 3 6 10 -6
20 -18 14 -18 15 0 24 10 5 44 15 76 22 31 7 57 17 57 22 0 4 7 8 16 8 20 0
43 28 44 53 0 21 16 22 24 1z m343 -15 c2 -16 -1 -19 -9 -11 -5 5 -7 15 -4 21
10 15 12 14 13 -10z m180 -15 c12 -11 13 -18 4 -27 -8 -8 -11 -8 -11 2 0 7 -4
10 -9 7 -10 -7 -23 19 -14 28 9 9 13 8 30 -10z m-138 -3 c7 -5 12 -14 9 -21
-2 -7 -10 -4 -22 9 -19 21 -12 28 13 12z m46 -2 c11 -17 -1 -21 -15 -4 -8 9
-8 15 -2 15 6 0 14 -5 17 -11z m180 -29 c3 -5 2 -10 -4 -10 -5 0 -13 5 -16 10
-3 6 -2 10 4 10 5 0 13 -4 16 -10z m555 -59 c0 -6 -4 -13 -10 -16 -5 -3 -10 1
-10 9 0 9 5 16 10 16 6 0 10 -4 10 -9z m-30 -11 c0 -5 -4 -10 -10 -10 -5 0
-10 5 -10 10 0 6 5 10 10 10 6 0 10 -4 10 -10z m-250 -56 c0 -8 -7 -14 -16
-14 -11 0 -15 -6 -11 -17 9 -33 9 -38 8 -69 -1 -26 -6 -33 -28 -39 -21 -5 -24
-8 -13 -15 9 -6 17 -5 22 3 4 7 8 8 8 2 1 -5 14 6 30 25 22 24 30 29 30 17 0
-10 8 -17 21 -17 11 0 18 -4 15 -9 -3 -5 -19 -7 -36 -5 -27 3 -30 1 -30 -26 0
-27 -3 -29 -30 -26 -25 3 -28 1 -19 -10 9 -11 7 -15 -5 -20 -9 -3 -16 -17 -16
-32 0 -14 -3 -22 -7 -18 -5 4 -8 13 -8 18 0 6 -6 13 -12 16 -8 2 -13 -5 -13
-18 0 -26 -22 -50 -46 -50 -13 0 -14 -3 -4 -14 13 -16 40 -10 53 11 10 17 27
17 27 -1 0 -15 -25 -39 -44 -42 -6 -1 -20 -6 -30 -10 -16 -6 -18 -4 -13 10 4
9 3 15 -2 12 -4 -3 -16 3 -26 14 -16 18 -16 20 -1 26 9 3 16 17 16 29 0 13 6
26 13 28 9 4 8 8 -3 16 -8 6 -10 11 -4 11 7 0 14 9 17 21 4 15 11 19 25 14 11
-3 23 -1 27 5 3 5 -1 10 -9 10 -9 0 -16 5 -16 10 0 6 9 10 19 10 45 0 93 78
53 86 -7 1 -8 0 -2 -3 16 -8 12 -33 -5 -28 -50 16 -49 14 -21 42 14 14 26 30
26 34 0 5 6 8 13 7 6 -2 11 4 11 13 -1 11 5 15 17 12 11 -3 19 -12 19 -19z
m-1335 0 c82 -26 195 -44 277 -43 83 0 98 -10 98 -63 -1 -28 -41 -79 -47 -60
-3 7 -24 12 -54 12 -27 0 -49 3 -49 8 0 4 -25 8 -55 9 -32 1 -66 8 -80 17 -13
9 -38 16 -54 16 -18 0 -35 8 -43 19 -7 10 -22 20 -33 22 -14 3 -21 15 -26 42
-7 43 -5 43 66 21z m1555 -4 c0 -5 -5 -10 -11 -10 -5 0 -7 5 -4 10 3 6 8 10
11 10 2 0 4 -4 4 -10z m-827 -15 c-3 -8 -9 -13 -13 -10 -4 3 -10 -2 -14 -10
-6 -16 -36 -21 -36 -6 0 24 13 36 40 38 22 2 28 -2 23 -12z m777 -5 c0 -5 -4
-10 -10 -10 -5 0 -10 5 -10 10 0 6 5 10 10 10 6 0 10 -4 10 -10z m-871 -18
c10 -18 -2 -50 -23 -64 -25 -17 -66 -8 -78 16 -19 44 -1 60 69 65 12 0 27 -7
32 -17z m-129 -36 c0 -28 -5 -36 -29 -46 -16 -6 -42 -10 -57 -8 -26 3 -29 7
-32 46 l-3 42 60 0 61 0 0 -34z m-488 -148 c-5 -21 -6 -21 -12 -2 -8 21 -3 37
10 29 4 -3 6 -15 2 -27z m1078 -78 c0 -5 -2 -10 -4 -10 -3 0 -8 5 -11 10 -3 6
-1 10 4 10 6 0 11 -4 11 -10z m48 -78 c4 -35 -16 -44 -38 -17 -11 13 -14 13
-26 -2 -17 -23 -18 -10 -1 20 27 48 60 48 65 -1z m-78 -52 c0 -5 -4 -10 -10
-10 -5 0 -10 5 -10 10 0 6 5 10 10 10 6 0 10 -4 10 -10z m-755 -370 c3 -5 -1
-10 -9 -10 -9 0 -16 5 -16 10 0 6 4 10 9 10 6 0 13 -4 16 -10z"/>
<path d="M1590 1185 c0 -8 5 -15 10 -15 6 0 10 7 10 15 0 8 -4 15 -10 15 -5 0
-10 -7 -10 -15z"/>
<path d="M2287 921 c-17 -6 -17 -8 -3 -20 9 -7 16 -12 17 -10 5 24 7 39 6 38
-1 0 -10 -4 -20 -8z"/>
<path d="M2771 1643 c-1 -6 -4 -20 -7 -30 -5 -17 -5 -17 6 0 6 10 9 23 6 30
-3 9 -5 9 -5 0z"/>
<path d="M2910 1635 c0 -8 5 -15 10 -15 6 0 10 7 10 15 0 8 -4 15 -10 15 -5 0
-10 -7 -10 -15z"/>
<path d="M2624 1616 c-3 -9 -10 -14 -14 -11 -12 7 -22 -29 -14 -49 8 -21 20
-20 28 2 3 9 10 27 15 39 7 14 7 25 0 28 -5 4 -12 -1 -15 -9z"/>
<path d="M1360 1600 c0 -11 2 -20 5 -20 2 0 9 9 15 20 9 16 8 20 -5 20 -8 0
-15 -9 -15 -20z"/>
<path d="M1830 1533 c0 -13 29 -38 35 -31 3 3 -4 13 -15 23 -11 10 -20 13 -20
8z"/>
<path d="M1760 1490 c0 -5 -9 -10 -20 -10 -11 0 -20 -6 -20 -14 0 -12 4 -12
30 0 29 15 40 34 20 34 -5 0 -10 -4 -10 -10z"/>
<path d="M2685 1490 c-3 -5 -1 -10 4 -10 6 0 11 5 11 10 0 6 -2 10 -4 10 -3 0
-8 -4 -11 -10z"/>
<path d="M2870 1460 c0 -5 7 -10 16 -10 8 0 12 5 9 10 -3 6 -10 10 -16 10 -5
0 -9 -4 -9 -10z"/>
<path d="M2887 1403 c-4 -3 -7 -13 -7 -21 0 -12 3 -12 15 -2 8 7 15 16 15 21
0 11 -14 12 -23 2z"/>
<path d="M2847 1380 c-7 -26 -4 -34 11 -29 4 2 5 15 2 29 l-6 25 -7 -25z"/>
<path d="M610 1376 c0 -2 8 -10 18 -17 15 -13 16 -12 3 4 -13 16 -21 21 -21
13z"/>
<path d="M2790 1327 c0 -12 -7 -33 -16 -45 -24 -35 6 -28 42 9 28 30 28 31 10
45 -27 20 -36 18 -36 -9z"/>
<path d="M2515 1310 c-3 -5 -1 -10 4 -10 6 0 11 5 11 10 0 6 -2 10 -4 10 -3 0
-8 -4 -11 -10z"/>
<path d="M2580 1195 c-7 -8 -11 -17 -8 -20 8 -8 49 8 45 18 -6 18 -23 19 -37
2z"/>
<path d="M902 969 c18 -36 34 -62 36 -58 4 9 -30 77 -53 104 -9 11 -1 -9 17
-46z"/>
<path d="M1830 940 c0 -5 4 -10 9 -10 6 0 13 5 16 10 3 6 -1 10 -9 10 -9 0
-16 -4 -16 -10z"/>
<path d="M1538 859 c-21 -11 -38 -22 -38 -24 0 -3 18 -4 40 -2 24 1 40 7 40
15 0 6 5 11 11 10 6 -2 14 3 16 10 7 18 -26 14 -69 -9z"/>
<path d="M1192 828 c3 -7 18 -14 34 -16 28 -2 28 -2 10 13 -24 18 -49 20 -44
3z"/>
<path d="M1340 815 c0 -9 70 -23 90 -18 36 9 21 18 -35 20 -30 1 -55 1 -55 -2z"/>
<path d="M1256 709 c3 -5 12 -9 21 -9 13 0 13 -3 3 -15 -7 -8 -10 -15 -7 -15
6 0 78 38 85 45 1 1 -22 2 -52 2 -31 0 -53 -4 -50 -8z"/>
<path d="M1110 442 c0 -13 69 -89 70 -77 0 6 -12 24 -27 40 -16 16 -27 33 -25
37 1 5 -2 8 -8 8 -5 0 -10 -4 -10 -8z"/>
<path d="M1211 338 c12 -10 38 -18 60 -18 32 0 37 3 32 17 -4 11 -8 12 -11 5
-2 -7 -11 -12 -19 -12 -8 0 -13 6 -10 13 3 9 -7 12 -35 12 -39 0 -39 0 -17
-17z"/>
<path d="M595 30 c-3 -5 -1 -10 4 -10 6 0 11 5 11 10 0 6 -2 10 -4 10 -3 0 -8
-4 -11 -10z"/>
<path d="M3940 15 c-10 -12 -10 -15 4 -15 9 0 16 7 16 15 0 8 -2 15 -4 15 -2
0 -9 -7 -16 -15z"/>
<path d="M618 3 c6 -2 18 -2 25 0 6 3 1 5 -13 5 -14 0 -19 -2 -12 -5z"/>
</g>
</svg>
